<?xml version="1.0" encoding="utf-8"?><svg viewBox="0 0 627 612" xmlns="http://www.w3.org/2000/svg" xmlns:xlink="http://www.w3.org/1999/xlink"><style>:root>svg{display:none}:root>svg:target{display:block}</style><svg fill="none" viewBox="0 0 34 91" id="people-icon" xmlns="http://www.w3.org/2000/svg"><path d="M26.983 13.8C28.282 8.63 24.891 3.444 19.41 2.22 13.928.993 8.432 4.192 7.133 9.363c-1.299 5.171 2.092 10.357 7.573 11.582 5.482 1.225 10.978-1.974 12.277-7.145zM1 62.252V40.945c0-4.003 1.686-7.843 4.686-10.673S12.756 25.85 17 25.85v0c4.244 0 8.313 1.59 11.314 4.42 3 2.831 4.686 6.67 4.686 10.674v21.383M9.253 90V54.328M24.853 54.328V90" stroke="#FED501" stroke-width="2" stroke-linecap="round" stroke-linejoin="round"/></svg><svg fill="none" viewBox="0 0 61 61" id="search-icon" xmlns="http://www.w3.org/2000/svg"><path d="M25 49c13.255 0 24-10.745 24-24S38.255 1 25 1 1 11.745 1 25s10.745 24 24 24z" stroke="#1E6AA6" stroke-width="2" stroke-miterlimit="10"/><path d="M25 42c9.389 0 17-7.611 17-17S34.389 8 25 8 8 15.611 8 25s7.611 17 17 17zM37.28 45.63l11.64 11.64a5.9 5.9 0 008.35 0v0a5.898 5.898 0 000-8.35L45.63 37.28" stroke="#1E6AA6" stroke-width="2" stroke-miterlimit="10"/></svg><svg viewBox="0 0 627 563" id="svg-blue" xmlns="http://www.w3.org/2000/svg"><path d="M32.972 309.929l-8.058 5.813c34.806 50.087 85.506 86.668 143.705 103.687 58.199 17.02 120.408 13.458 176.329-10.096a14.449 14.449 0 006.908-6.395 11.733 11.733 0 000-9.882 12.733 12.733 0 00-6.439-6.515 12.548 12.548 0 00-9.103-.46 232.877 232.877 0 01-93.247 19.183c-38.775.006-76.978-9.452-111.354-27.57-34.376-18.117-63.907-44.357-86.077-76.484l-6.908 5.231-5.756 3.488z"/><path d="M614.215 35.471a131.82 131.82 0 00-52.831 7.87 131.908 131.908 0 00-45.383 28.19 133.256 133.256 0 00-31.962 88.406 239.795 239.795 0 01-20.273 95.206 239.628 239.628 0 01-56.438 79.279 13.386 13.386 0 000 18.03 13.943 13.943 0 009.298 4.072 11.61 11.61 0 008.717-3.49 269.299 269.299 0 0062.53-88.085 269.484 269.484 0 0022.898-105.594 101.834 101.834 0 0125.57-70.375 93.54 93.54 0 0152.303-26.173 12.781 12.781 0 019.88 0 11.64 11.64 0 014.068 9.306v104.691a361.397 361.397 0 01-54.269 191.104 360.99 360.99 0 01-147.041 133.471 360.637 360.637 0 01-195.324 35.453 360.721 360.721 0 01-184.51-73.291 12.204 12.204 0 00-9.008-3.973 12.196 12.196 0 00-9.007 3.973 12.804 12.804 0 000 17.449 381.62 381.62 0 00237.688 82.008c102.294-.154 200.355-40.892 272.688-113.284S626.846 279.182 627 176.804V48.267a12.808 12.808 0 00-7.893-11.821 12.77 12.77 0 00-4.892-.975zM236.537 201.48a66.906 66.906 0 0025.368-4.992 66.344 66.344 0 0021.507-14.215 65.517 65.517 0 0014.37-21.274 64.951 64.951 0 005.046-25.095V-36.662c.405-1.847.387-3.76-.053-5.599a12.6 12.6 0 00-2.49-5.028 12.773 12.773 0 00-4.439-3.473 12.914 12.914 0 00-11.04 0 12.773 12.773 0 00-4.439 3.473 12.6 12.6 0 00-2.49 5.028 12.523 12.523 0 00-.053 5.599v172.566c0 5.337-1.072 10.62-3.154 15.543a40.247 40.247 0 01-8.973 13.135 40.772 40.772 0 01-13.404 8.69 41.11 41.11 0 01-15.756 2.898c-10.796 0-21.15-4.242-28.783-11.794-7.634-7.551-11.923-17.793-11.923-28.472V72.63c0-3.356-1.348-6.575-3.747-8.948a12.863 12.863 0 00-9.046-3.707 12.863 12.863 0 00-9.046 3.706 12.587 12.587 0 00-3.747 8.949v63.274c0 17.392 6.984 34.071 19.416 46.369 12.433 12.298 29.294 19.207 46.876 19.207z"/></svg><svg viewBox="0 0 621 612" id="svg-yellow" xmlns="http://www.w3.org/2000/svg"><path d="M640.451 272.823l8.688-6.267c-37.527-53.996-92.188-93.432-154.935-111.78-62.748-18.348-129.819-14.508-190.11 10.885a15.572 15.572 0 00-7.447 6.893 12.639 12.639 0 000 10.654 13.719 13.719 0 006.942 7.023 13.53 13.53 0 009.814.497 251.083 251.083 0 01100.534-20.681c41.806-.006 82.994 10.19 120.057 29.722 37.062 19.531 68.901 47.819 92.804 82.454l7.447-5.64 6.206-3.76z"/><path d="M13.784 568.702a142.127 142.127 0 0056.96-8.485 142.202 142.202 0 0048.929-30.39 143.649 143.649 0 0034.461-95.306 258.494 258.494 0 0121.857-102.636 258.322 258.322 0 0160.849-85.467 14.431 14.431 0 000-19.437 15.03 15.03 0 00-10.025-4.389 12.52 12.52 0 00-9.399 3.762A290.302 290.302 0 00150 321.313a290.497 290.497 0 00-24.688 113.835 109.773 109.773 0 01-27.569 75.869 100.844 100.844 0 01-56.39 28.215 13.777 13.777 0 01-10.652 0 12.537 12.537 0 01-4.386-10.032V416.338a389.586 389.586 0 0158.51-206.02A389.2 389.2 0 01243.358 66.431a388.851 388.851 0 01210.589-38.22 388.944 388.944 0 01198.929 79.01 13.156 13.156 0 0015.018 3.166 13.165 13.165 0 004.405-3.166 13.8 13.8 0 000-18.81A411.462 411.462 0 00416.036.003C305.747.168 200.023 44.085 122.037 122.128 44.051 200.17.166 305.97 0 416.338v138.57a13.798 13.798 0 008.51 12.744 13.78 13.78 0 005.274 1.05zM420.978 389.736a72.148 72.148 0 00-27.351 5.382 71.525 71.525 0 00-23.188 15.324 70.668 70.668 0 00-15.493 22.935 70.02 70.02 0 00-5.44 27.053v186.035a13.502 13.502 0 00.057 6.036 13.59 13.59 0 002.685 5.42 13.77 13.77 0 004.786 3.744 13.917 13.917 0 005.951 1.335c2.06 0 4.093-.456 5.951-1.335a13.77 13.77 0 004.786-3.744 13.59 13.59 0 002.685-5.42c.474-1.983.494-4.045.057-6.036V460.43a43.001 43.001 0 013.4-16.756 43.385 43.385 0 019.675-14.16 43.945 43.945 0 0114.452-9.368 44.307 44.307 0 0116.987-3.124c11.639 0 22.802 4.573 31.032 12.714 8.231 8.14 12.855 19.181 12.855 30.694v68.213c0 3.618 1.453 7.088 4.039 9.647a13.873 13.873 0 009.753 3.996c3.659 0 7.167-1.438 9.754-3.996a13.571 13.571 0 004.039-9.647V460.43c0-18.749-7.53-36.73-20.933-49.988-13.404-13.257-31.583-20.706-50.539-20.706z"/></svg><svg fill="none" viewBox="0 0 40 34" id="telegram" xmlns="http://www.w3.org/2000/svg"><path d="M32.808 6.298c-.803-.332-1.31.235-1.877.586-6.403 4.054-12.813 8.107-19.17 12.24a2.905 2.905 0 01-2.833.332c-2.26-.779-4.569-1.412-6.832-2.171-.832-.278-2.07-.331-2.096-1.492-.026-1.16 1.16-1.458 2.057-1.813 3.74-1.484 7.484-2.956 11.23-4.414 7.8-3.043 15.598-6.082 23.395-9.119.875-.331 1.736-.775 2.6-.063.865.713.764 1.8.567 2.765-1.202 5.923-2.482 11.836-3.724 17.752-.733 3.497-1.437 7-2.178 10.497-.599 2.854-1.886 3.315-4.257 1.581-2.372-1.733-4.782-3.45-7.052-5.336-1.136-.948-1.772-.74-2.646.248-1.012 1.15-2.165 2.175-3.275 3.235-.39.372-.832.909-1.383.723-.714-.242-.268-.958-.252-1.429.089-2.26.285-4.514.387-6.775.018-.408.123-.807.308-1.17a2.81 2.81 0 01.766-.93c5.116-4.641 10.213-9.3 15.292-13.978.377-.345.956-.563.973-1.27z" fill="#FBFBFB"/></svg><svg version="1.1" viewBox="0 0 82.959 138.231" id="tryzub-blue" xml:space="preserve" fill-rule="evenodd" xmlns="http://www.w3.org/2000/svg"><defs id="fdefs4"><style type="text/css" id="fstyle6"/></defs><g id="ftryzub-blue"><path d="M41.48 0c-3.215 3.655-5.185 8.451-5.185 13.688.207 11.537 1.607 23.047 1.737 34.584.259 10.733-2.956 20.817-6.87 30.643-1.323 2.722-2.723 5.392-4.148 8.063l-4.148-.856c-3.76-.752-6.196-4.381-5.445-8.114a6.968 6.968 0 016.767-5.574l1.503.155-3.37-28.154c-1.115-12.548-7.57-23.566-17.11-30.747A49.472 49.472 0 000 10.344v100.121h23.125c1.737 9.385 6.896 17.551 14.155 23.177 1.737 1.166 3.163 2.748 4.2 4.588 1.037-1.84 2.463-3.422 4.2-4.588 7.258-5.626 12.417-13.792 14.154-23.177H82.96V10.345a49.474 49.474 0 00-5.21 3.343c-9.54 7.182-15.996 18.2-17.11 30.747L57.267 72.59l1.504-.155a6.968 6.968 0 016.766 5.574c.752 3.733-1.685 7.362-5.444 8.114l-4.148.856c-1.426-2.67-2.826-5.34-4.148-8.063-3.915-9.825-7.13-19.91-6.87-30.643.13-11.537 1.53-23.047 1.737-34.584 0-5.237-1.97-10.033-5.185-13.688zM6.922 24.784a35.807 35.807 0 018.374 18.977l2.774 23.254c-3.526 1.763-6.222 4.978-7.233 8.867H6.922V24.784zm69.115 0v51.098h-3.914c-1.011-3.889-3.708-7.104-7.233-8.866l2.774-23.255a35.807 35.807 0 018.373-18.977zM41.48 71.501a79.077 79.077 0 007.57 17.188c-3.008.933-5.652 2.722-7.57 5.107-1.919-2.411-4.563-4.174-7.57-5.107A79.077 79.077 0 0041.48 71.5zM6.922 82.803h3.915c1.244 4.77 4.951 8.555 9.695 9.851l3.319.778a38.226 38.226 0 00-1.374 10.11H6.922v-20.74zm65.2 0h3.915v20.74H60.482c0-3.5-.492-6.896-1.374-10.111l3.319-.778c4.718-1.296 8.451-5.081 9.696-9.851zm-41.505 12.21c4.174.597 7.415 4.174 7.415 8.53h-8.633c0-2.956.44-5.808 1.218-8.53zm21.725 0a30.965 30.965 0 011.218 8.53h-8.632c0-4.356 3.24-7.933 7.414-8.53zm-22.166 15.451h7.855v14.544c-3.81-3.992-6.584-8.996-7.855-14.544zm14.752 0h7.855c-1.27 5.548-4.045 10.552-7.856 14.544v-14.544z" id="fpath10" fill="rgba(17, 93, 152, 0.3)"/></g></svg><svg version="1.1" viewBox="0 0 82.959 138.231" id="tryzub-yellow" xml:space="preserve" fill-rule="evenodd" xmlns="http://www.w3.org/2000/svg"><defs id="gdefs4"><style type="text/css" id="gstyle6"/></defs><g id="gtryzub-yellow"><path d="M41.48 0c-3.215 3.655-5.185 8.451-5.185 13.688.207 11.537 1.607 23.047 1.737 34.584.259 10.733-2.956 20.817-6.87 30.643-1.323 2.722-2.723 5.392-4.148 8.063l-4.148-.856c-3.76-.752-6.196-4.381-5.445-8.114a6.968 6.968 0 016.767-5.574l1.503.155-3.37-28.154c-1.115-12.548-7.57-23.566-17.11-30.747A49.472 49.472 0 000 10.344v100.121h23.125c1.737 9.385 6.896 17.551 14.155 23.177 1.737 1.166 3.163 2.748 4.2 4.588 1.037-1.84 2.463-3.422 4.2-4.588 7.258-5.626 12.417-13.792 14.154-23.177H82.96V10.345a49.474 49.474 0 00-5.21 3.343c-9.54 7.182-15.996 18.2-17.11 30.747L57.267 72.59l1.504-.155a6.968 6.968 0 016.766 5.574c.752 3.733-1.685 7.362-5.444 8.114l-4.148.856c-1.426-2.67-2.826-5.34-4.148-8.063-3.915-9.825-7.13-19.91-6.87-30.643.13-11.537 1.53-23.047 1.737-34.584 0-5.237-1.97-10.033-5.185-13.688zM6.922 24.784a35.807 35.807 0 018.374 18.977l2.774 23.254c-3.526 1.763-6.222 4.978-7.233 8.867H6.922V24.784zm69.115 0v51.098h-3.914c-1.011-3.889-3.708-7.104-7.233-8.866l2.774-23.255a35.807 35.807 0 018.373-18.977zM41.48 71.501a79.077 79.077 0 007.57 17.188c-3.008.933-5.652 2.722-7.57 5.107-1.919-2.411-4.563-4.174-7.57-5.107A79.077 79.077 0 0041.48 71.5zM6.922 82.803h3.915c1.244 4.77 4.951 8.555 9.695 9.851l3.319.778a38.226 38.226 0 00-1.374 10.11H6.922v-20.74zm65.2 0h3.915v20.74H60.482c0-3.5-.492-6.896-1.374-10.111l3.319-.778c4.718-1.296 8.451-5.081 9.696-9.851zm-41.505 12.21c4.174.597 7.415 4.174 7.415 8.53h-8.633c0-2.956.44-5.808 1.218-8.53zm21.725 0a30.965 30.965 0 011.218 8.53h-8.632c0-4.356 3.24-7.933 7.414-8.53zm-22.166 15.451h7.855v14.544c-3.81-3.992-6.584-8.996-7.855-14.544zm14.752 0h7.855c-1.27 5.548-4.045 10.552-7.856 14.544v-14.544z" id="gpath10" fill="rgba(254, 183, 1, 0.3)"/></g></svg><svg viewBox="0 0 256 256" id="eye" xmlns="http://www.w3.org/2000/svg"><g stroke-width="0" stroke-miterlimit="10" fill="#000"><path d="M38.789 225.616a8.368 8.368 0 01-5.94-2.462 8.398 8.398 0 010-11.88L211.272 32.847a8.398 8.398 0 0111.881 0 8.398 8.398 0 010 11.881L44.73 223.154a8.368 8.368 0 01-5.94 2.462z" fill="#000"/><path d="M72.813 191.587a8.38 8.38 0 01-4.128-1.087c-21.614-12.195-43.41-31.417-64.78-57.128a8.4 8.4 0 010-10.741c60.31-72.552 122.017-91.774 183.41-57.134 2.286 1.292 3.84 3.577 4.196 6.182s-.527 5.22-2.386 7.077L78.756 189.125a8.387 8.387 0 01-5.943 2.462zM21.382 128c16.726 19.314 33.537 34.287 50.11 44.628l97.585-97.586C119.965 52.652 71.49 70.054 21.382 128z" fill="#000"/><path d="M98.295 166.108a8.399 8.399 0 01-5.94-2.46c-9.524-9.52-14.77-22.179-14.77-35.648 0-27.798 22.617-50.414 50.415-50.414 13.301 0 25.851 5.133 35.338 14.46 1.593 1.569 2.5 3.703 2.512 5.938s-.863 4.383-2.434 5.971l-59.156 59.668a8.414 8.414 0 01-5.948 2.487c-.006-.002-.012-.002-.017-.002zM128 94.39c-18.533 0-33.61 15.077-33.61 33.61 0 6.092 1.608 11.934 4.625 17.043l45.776-46.171c-5.056-2.924-10.808-4.482-16.791-4.482zM127.924 207.15c-9.948 0-19.897-1.403-29.848-4.215-4.464-1.26-7.06-5.904-5.8-10.371a8.39 8.39 0 0110.371-5.798c43.222 12.21 87.604-7.548 131.968-58.766-11.139-12.861-22.35-23.846-33.4-32.713a8.405 8.405 0 0110.52-13.108c13.433 10.78 27.011 24.39 40.357 40.45a8.394 8.394 0 010 10.74c-40.788 49.073-82.433 73.782-124.168 73.782z" fill="#000"/><path d="M128 178.414c-1.081 0-2.157-.036-3.218-.1a8.403 8.403 0 01-7.876-8.901c.286-4.627 4.277-8.148 8.901-7.873.725.044 1.456.07 2.193.07 18.533 0 33.61-15.077 33.61-33.61 0-.756-.026-1.507-.073-2.249-.3-4.63 3.21-8.63 7.84-8.929 4.663-.288 8.631 3.21 8.931 7.84.07 1.103.106 2.215.106 3.338 0 27.798-22.616 50.414-50.414 50.414z" fill="#000"/></g></svg></svg>