<svg aria-hidden="true" style="position: absolute; width: 0; height: 0; overflow: hidden;" version="1.1" xmlns="http://www.w3.org/2000/svg" xmlns:xlink="http://www.w3.org/1999/xlink">
<defs>
<symbol id="icon-Search-icon" viewBox="0 0 32 32">
<path fill="none" stroke="#1e6aa6" style="stroke: var(--color1, #1e6aa6)" stroke-linejoin="miter" stroke-linecap="butt" stroke-miterlimit="10" stroke-width="1.0492" d="M13.115 25.705c6.953 0 12.59-5.637 12.59-12.59s-5.637-12.59-12.59-12.59c-6.953 0-12.59 5.637-12.59 12.59s5.637 12.59 12.59 12.59z"></path>
<path fill="none" stroke="#1e6aa6" style="stroke: var(--color1, #1e6aa6)" stroke-linejoin="miter" stroke-linecap="butt" stroke-miterlimit="10" stroke-width="1.0492" d="M13.115 22.033c4.925 0 8.918-3.993 8.918-8.918s-3.993-8.918-8.918-8.918c-4.925 0-8.918 3.993-8.918 8.918s3.993 8.918 8.918 8.918z"></path>
<path fill="none" stroke="#1e6aa6" style="stroke: var(--color1, #1e6aa6)" stroke-linejoin="miter" stroke-linecap="butt" stroke-miterlimit="10" stroke-width="1.0492" d="M19.557 23.937l6.106 6.106c0.287 0.288 0.629 0.516 1.005 0.672s0.779 0.236 1.185 0.236c0.407 0 0.81-0.080 1.186-0.236s0.717-0.384 1.005-0.672v0c0.288-0.287 0.516-0.629 0.672-1.005s0.236-0.779 0.236-1.186c0-0.407-0.080-0.81-0.236-1.185s-0.384-0.717-0.672-1.005l-6.106-6.106"></path>
</symbol>
<symbol id="icon-People-icon" viewBox="0 0 12 32">
<path fill="none" stroke="#fed501" style="stroke: var(--color2, #fed501)" stroke-linejoin="round" stroke-linecap="round" stroke-miterlimit="4" stroke-width="0.7033" d="M9.489 4.853c0.457-1.818-0.736-3.642-2.663-4.073s-3.86 0.694-4.317 2.512 0.736 3.642 2.663 4.073c1.928 0.431 3.86-0.694 4.317-2.512z"></path>
<path fill="none" stroke="#fed501" style="stroke: var(--color2, #fed501)" stroke-linejoin="round" stroke-linecap="round" stroke-miterlimit="4" stroke-width="0.7033" d="M0.352 21.891v-7.493c0-1.408 0.593-2.758 1.648-3.753s2.486-1.555 3.978-1.555v0c1.492 0 2.923 0.559 3.978 1.555s1.648 2.345 1.648 3.753v7.519"></path>
<path fill="none" stroke="#fed501" style="stroke: var(--color2, #fed501)" stroke-linejoin="round" stroke-linecap="round" stroke-miterlimit="4" stroke-width="0.7033" d="M3.254 31.648v-12.544"></path>
<path fill="none" stroke="#fed501" style="stroke: var(--color2, #fed501)" stroke-linejoin="round" stroke-linecap="round" stroke-miterlimit="4" stroke-width="0.7033" d="M8.74 19.104v12.544"></path>
</symbol>
<symbol id="icon-telegram" viewBox="0 0 38 32">
<path fill="#fbfbfb" style="fill: var(--color3, #fbfbfb)" d="M30.878 5.927c-0.755-0.312-1.233 0.221-1.766 0.552-6.026 3.815-12.059 7.63-18.042 11.52-0.381 0.278-0.826 0.453-1.293 0.507s-0.94-0.013-1.373-0.195c-2.127-0.733-4.3-1.329-6.43-2.043-0.783-0.262-1.948-0.312-1.973-1.404s1.091-1.373 1.936-1.706c3.52-1.398 7.044-2.783 10.57-4.155 7.341-2.864 14.68-5.724 22.019-8.582 0.823-0.312 1.634-0.73 2.448-0.059s0.718 1.694 0.533 2.602c-1.131 5.575-2.337 11.14-3.505 16.708-0.691 3.291-1.353 6.588-2.050 9.879-0.564 2.686-1.776 3.12-4.007 1.488s-4.501-3.247-6.637-5.022c-1.070-0.892-1.668-0.696-2.491 0.234-0.953 1.082-2.038 2.046-3.083 3.045-0.367 0.349-0.783 0.855-1.301 0.68-0.672-0.228-0.253-0.902-0.237-1.344 0.083-2.128 0.268-4.249 0.364-6.376 0.017-0.384 0.116-0.76 0.29-1.101s0.421-0.64 0.721-0.876c4.815-4.367 9.612-8.752 14.392-13.155 0.354-0.324 0.9-0.53 0.915-1.195z"></path>
</symbol>
</defs>
</svg>
