<?xml version="1.0" encoding="utf-8"?><svg viewBox="0 0 627 612" xmlns="http://www.w3.org/2000/svg" xmlns:xlink="http://www.w3.org/1999/xlink"><style>:root>svg{display:none}:root>svg:target{display:block}</style><svg fill="none" viewBox="0 0 34 91" id="people-icon" xmlns="http://www.w3.org/2000/svg"><path d="M26.983 13.8C28.282 8.63 24.891 3.444 19.41 2.22 13.928.993 8.432 4.192 7.133 9.363c-1.299 5.171 2.092 10.357 7.573 11.582 5.482 1.225 10.978-1.974 12.277-7.145zM1 62.252V40.945c0-4.003 1.686-7.843 4.686-10.673S12.756 25.85 17 25.85v0c4.244 0 8.313 1.59 11.314 4.42 3 2.831 4.686 6.67 4.686 10.674v21.383M9.253 90V54.328M24.853 54.328V90" stroke="#FED501" stroke-width="2" stroke-linecap="round" stroke-linejoin="round"/></svg><svg fill="none" viewBox="0 0 61 61" id="search-icon" xmlns="http://www.w3.org/2000/svg"><path d="M25 49c13.255 0 24-10.745 24-24S38.255 1 25 1 1 11.745 1 25s10.745 24 24 24z" stroke="#1E6AA6" stroke-width="2" stroke-miterlimit="10"/><path d="M25 42c9.389 0 17-7.611 17-17S34.389 8 25 8 8 15.611 8 25s7.611 17 17 17zM37.28 45.63l11.64 11.64a5.9 5.9 0 008.35 0v0a5.898 5.898 0 000-8.35L45.63 37.28" stroke="#1E6AA6" stroke-width="2" stroke-miterlimit="10"/></svg><svg viewBox="0 0 627 563" id="svg-blue" xmlns="http://www.w3.org/2000/svg"><path d="M32.972 309.929l-8.058 5.813c34.806 50.087 85.506 86.668 143.705 103.687 58.199 17.02 120.408 13.458 176.329-10.096a14.449 14.449 0 006.908-6.395 11.733 11.733 0 000-9.882 12.733 12.733 0 00-6.439-6.515 12.548 12.548 0 00-9.103-.46 232.877 232.877 0 01-93.247 19.183c-38.775.006-76.978-9.452-111.354-27.57-34.376-18.117-63.907-44.357-86.077-76.484l-6.908 5.231-5.756 3.488z"/><path d="M614.215 35.471a131.82 131.82 0 00-52.831 7.87 131.908 131.908 0 00-45.383 28.19 133.256 133.256 0 00-31.962 88.406 239.795 239.795 0 01-20.273 95.206 239.628 239.628 0 01-56.438 79.279 13.386 13.386 0 000 18.03 13.943 13.943 0 009.298 4.072 11.61 11.61 0 008.717-3.49 269.299 269.299 0 0062.53-88.085 269.484 269.484 0 0022.898-105.594 101.834 101.834 0 0125.57-70.375 93.54 93.54 0 0152.303-26.173 12.781 12.781 0 019.88 0 11.64 11.64 0 014.068 9.306v104.691a361.397 361.397 0 01-54.269 191.104 360.99 360.99 0 01-147.041 133.471 360.637 360.637 0 01-195.324 35.453 360.721 360.721 0 01-184.51-73.291 12.204 12.204 0 00-9.008-3.973 12.196 12.196 0 00-9.007 3.973 12.804 12.804 0 000 17.449 381.62 381.62 0 00237.688 82.008c102.294-.154 200.355-40.892 272.688-113.284S626.846 279.182 627 176.804V48.267a12.808 12.808 0 00-7.893-11.821 12.77 12.77 0 00-4.892-.975zM236.537 201.48a66.906 66.906 0 0025.368-4.992 66.344 66.344 0 0021.507-14.215 65.517 65.517 0 0014.37-21.274 64.951 64.951 0 005.046-25.095V-36.662c.405-1.847.387-3.76-.053-5.599a12.6 12.6 0 00-2.49-5.028 12.773 12.773 0 00-4.439-3.473 12.914 12.914 0 00-11.04 0 12.773 12.773 0 00-4.439 3.473 12.6 12.6 0 00-2.49 5.028 12.523 12.523 0 00-.053 5.599v172.566c0 5.337-1.072 10.62-3.154 15.543a40.247 40.247 0 01-8.973 13.135 40.772 40.772 0 01-13.404 8.69 41.11 41.11 0 01-15.756 2.898c-10.796 0-21.15-4.242-28.783-11.794-7.634-7.551-11.923-17.793-11.923-28.472V72.63c0-3.356-1.348-6.575-3.747-8.948a12.863 12.863 0 00-9.046-3.707 12.863 12.863 0 00-9.046 3.706 12.587 12.587 0 00-3.747 8.949v63.274c0 17.392 6.984 34.071 19.416 46.369 12.433 12.298 29.294 19.207 46.876 19.207z"/></svg><svg viewBox="0 0 621 612" id="svg-yellow" xmlns="http://www.w3.org/2000/svg"><path d="M640.451 272.823l8.688-6.267c-37.527-53.996-92.188-93.432-154.935-111.78-62.748-18.348-129.819-14.508-190.11 10.885a15.572 15.572 0 00-7.447 6.893 12.639 12.639 0 000 10.654 13.719 13.719 0 006.942 7.023 13.53 13.53 0 009.814.497 251.083 251.083 0 01100.534-20.681c41.806-.006 82.994 10.19 120.057 29.722 37.062 19.531 68.901 47.819 92.804 82.454l7.447-5.64 6.206-3.76z"/><path d="M13.784 568.702a142.127 142.127 0 0056.96-8.485 142.202 142.202 0 0048.929-30.39 143.649 143.649 0 0034.461-95.306 258.494 258.494 0 0121.857-102.636 258.322 258.322 0 0160.849-85.467 14.431 14.431 0 000-19.437 15.03 15.03 0 00-10.025-4.389 12.52 12.52 0 00-9.399 3.762A290.302 290.302 0 00150 321.313a290.497 290.497 0 00-24.688 113.835 109.773 109.773 0 01-27.569 75.869 100.844 100.844 0 01-56.39 28.215 13.777 13.777 0 01-10.652 0 12.537 12.537 0 01-4.386-10.032V416.338a389.586 389.586 0 0158.51-206.02A389.2 389.2 0 01243.358 66.431a388.851 388.851 0 01210.589-38.22 388.944 388.944 0 01198.929 79.01 13.156 13.156 0 0015.018 3.166 13.165 13.165 0 004.405-3.166 13.8 13.8 0 000-18.81A411.462 411.462 0 00416.036.003C305.747.168 200.023 44.085 122.037 122.128 44.051 200.17.166 305.97 0 416.338v138.57a13.798 13.798 0 008.51 12.744 13.78 13.78 0 005.274 1.05zM420.978 389.736a72.148 72.148 0 00-27.351 5.382 71.525 71.525 0 00-23.188 15.324 70.668 70.668 0 00-15.493 22.935 70.02 70.02 0 00-5.44 27.053v186.035a13.502 13.502 0 00.057 6.036 13.59 13.59 0 002.685 5.42 13.77 13.77 0 004.786 3.744 13.917 13.917 0 005.951 1.335c2.06 0 4.093-.456 5.951-1.335a13.77 13.77 0 004.786-3.744 13.59 13.59 0 002.685-5.42c.474-1.983.494-4.045.057-6.036V460.43a43.001 43.001 0 013.4-16.756 43.385 43.385 0 019.675-14.16 43.945 43.945 0 0114.452-9.368 44.307 44.307 0 0116.987-3.124c11.639 0 22.802 4.573 31.032 12.714 8.231 8.14 12.855 19.181 12.855 30.694v68.213c0 3.618 1.453 7.088 4.039 9.647a13.873 13.873 0 009.753 3.996c3.659 0 7.167-1.438 9.754-3.996a13.571 13.571 0 004.039-9.647V460.43c0-18.749-7.53-36.73-20.933-49.988-13.404-13.257-31.583-20.706-50.539-20.706z"/></svg><svg fill="none" viewBox="0 0 40 34" id="telegram" xmlns="http://www.w3.org/2000/svg"><path d="M32.808 6.298c-.803-.332-1.31.235-1.877.586-6.403 4.054-12.813 8.107-19.17 12.24a2.905 2.905 0 01-2.833.332c-2.26-.779-4.569-1.412-6.832-2.171-.832-.278-2.07-.331-2.096-1.492-.026-1.16 1.16-1.458 2.057-1.813 3.74-1.484 7.484-2.956 11.23-4.414 7.8-3.043 15.598-6.082 23.395-9.119.875-.331 1.736-.775 2.6-.063.865.713.764 1.8.567 2.765-1.202 5.923-2.482 11.836-3.724 17.752-.733 3.497-1.437 7-2.178 10.497-.599 2.854-1.886 3.315-4.257 1.581-2.372-1.733-4.782-3.45-7.052-5.336-1.136-.948-1.772-.74-2.646.248-1.012 1.15-2.165 2.175-3.275 3.235-.39.372-.832.909-1.383.723-.714-.242-.268-.958-.252-1.429.089-2.26.285-4.514.387-6.775.018-.408.123-.807.308-1.17a2.81 2.81 0 01.766-.93c5.116-4.641 10.213-9.3 15.292-13.978.377-.345.956-.563.973-1.27z" fill="#FBFBFB"/></svg></svg>