<svg width="34" height="91" viewBox="0 0 34 91" fill="none" xmlns="http://www.w3.org/2000/svg">
<path d="M26.9832 13.8002C28.282 8.62907 24.8913 3.44379 19.4097 2.21853C13.9282 0.993276 8.43164 4.19202 7.13283 9.36313C5.83402 14.5342 9.22479 19.7195 14.7063 20.9448C20.1879 22.17 25.6844 18.9713 26.9832 13.8002Z" stroke="#FED501" stroke-width="2" stroke-linecap="round" stroke-linejoin="round"/>
<path d="M1 62.2524V40.9448C1 36.9416 2.68571 33.1025 5.68629 30.2718C8.68687 27.4411 12.7565 25.8509 17 25.8509V25.8509C21.2435 25.8509 25.3131 27.4411 28.3137 30.2718C31.3143 33.1025 33 36.9416 33 40.9448V62.3278" stroke="#FED501" stroke-width="2" stroke-linecap="round" stroke-linejoin="round"/>
<path d="M9.2533 90V54.3281" stroke="#FED501" stroke-width="2" stroke-linecap="round" stroke-linejoin="round"/>
<path d="M24.8534 54.3281V90" stroke="#FED501" stroke-width="2" stroke-linecap="round" stroke-linejoin="round"/>
</svg>
