<svg width="61" height="61" viewBox="0 0 61 61" fill="none" xmlns="http://www.w3.org/2000/svg">
<path d="M25 49C38.2548 49 49 38.2548 49 25C49 11.7452 38.2548 1 25 1C11.7452 1 1 11.7452 1 25C1 38.2548 11.7452 49 25 49Z" stroke="#1E6AA6" stroke-width="2" stroke-miterlimit="10"/>
<path d="M25 42C34.3888 42 42 34.3888 42 25C42 15.6112 34.3888 8 25 8C15.6112 8 8 15.6112 8 25C8 34.3888 15.6112 42 25 42Z" stroke="#1E6AA6" stroke-width="2" stroke-miterlimit="10"/>
<path d="M37.28 45.63L48.92 57.27C49.468 57.8188 50.1188 58.2542 50.8352 58.5512C51.5516 58.8483 52.3195 59.0012 53.095 59.0012C53.8706 59.0012 54.6385 58.8483 55.3549 58.5512C56.0713 58.2542 56.7221 57.8188 57.27 57.27V57.27C57.8188 56.7221 58.2542 56.0713 58.5512 55.3549C58.8483 54.6385 59.0012 53.8706 59.0012 53.095C59.0012 52.3195 58.8483 51.5516 58.5512 50.8352C58.2542 50.1188 57.8188 49.468 57.27 48.92L45.63 37.28" stroke="#1E6AA6" stroke-width="2" stroke-miterlimit="10"/>
</svg>
