<svg width="40" height="34" viewBox="0 0 40 34" fill="none" xmlns="http://www.w3.org/2000/svg">
<path d="M32.8076 6.29753C32.0052 5.96608 31.4975 6.53285 30.9309 6.88419C24.5279 10.9378 18.1183 14.9914 11.7612 19.1246C11.3562 19.4199 10.8832 19.6054 10.3873 19.6634C9.89138 19.7215 9.38905 19.6501 8.92813 19.456C6.66824 18.6771 4.35923 18.0441 2.09607 17.285C1.26417 17.0066 0.0261401 16.9536 -6.14761e-05 15.7935C-0.0262631 14.6335 1.15936 14.3352 2.05676 13.9805C5.79704 12.4956 9.54059 11.024 13.2874 9.56561C21.0868 6.52291 28.885 3.48353 36.6822 0.447457C37.5566 0.116009 38.418 -0.328133 39.2827 0.384482C40.1473 1.0971 40.0458 2.18425 39.8493 3.14876C38.6473 9.07175 37.3667 14.9848 36.1254 20.9012C35.3917 24.3979 34.6876 27.9013 33.9474 31.3981C33.348 34.2519 32.0609 34.7126 29.6896 32.9791C27.3184 31.2457 24.9078 29.5288 22.6381 27.6428C21.5016 26.6949 20.8662 26.9037 19.9918 27.8914C18.9797 29.0415 17.8268 30.0657 16.7166 31.1263C16.3268 31.4976 15.8847 32.0345 15.3344 31.8489C14.6204 31.6069 15.0659 30.891 15.0822 30.4204C15.1707 28.1599 15.3672 25.906 15.4687 23.6455C15.4865 23.2374 15.5918 22.8381 15.7773 22.4752C15.9628 22.1123 16.2241 21.7947 16.543 21.5442C21.6588 16.9039 26.7561 12.2448 31.8349 7.56697C32.2115 7.22227 32.7912 7.00351 32.8076 6.29753Z" fill="#FBFBFB"/>
</svg>
